<?xml version="1.0" encoding="UTF-8"?>
<svg id="Camada_2" data-name="Camada 2" xmlns="http://www.w3.org/2000/svg" viewBox="0 0 113.89 116.96">
  <defs>
    <style>
      .cls-1 {
        fill: #0b732c;
      }
    </style>
  </defs>
  <g id="Camada_1-2" data-name="Camada 1">
    <path class="cls-1" d="M42.56,103.05c-14.91,0-28.13-7.37-36.23-18.65,9.57,19.28,29.46,32.56,52.41,32.56,21.63,0,40.56-11.8,50.67-29.32l-25.15-13.45c-6.36,16.85-22.65,28.86-41.7,28.86Z"/>
    <path class="cls-1" d="M58.74,0C35.79,0,15.9,13.28,6.33,32.56,14.43,21.28,27.65,13.91,42.56,13.91c20.91,0,38.5,14.47,43.28,33.92l28.05-8.79C105.86,16.32,84.17,0,58.74,0Z"/>
    <path class="cls-1" d="M42.56,101.05c17.33,0,32.27-10.41,38.91-25.3.37-.82.71-1.66,1.02-2.51l-1.6-.85c-5.03,8.79-14.51,14.72-25.35,14.72-7.27,0-13.93-2.67-19.05-7.09-.69.42-1.4.81-2.13,1.16-3.67,1.81-7.79,2.82-12.14,2.82-6.73,0-12.9-2.42-17.7-6.43,7.01,13.91,21.43,23.48,38.04,23.48Z"/>
    <path class="cls-1" d="M32.83,79.69c.73-.33,1.43-.69,2.12-1.09-5.33-5.3-8.63-12.63-8.63-20.71,0-9.03,4.12-17.11,10.57-22.47-.65-.46-1.32-.89-2.01-1.28-3.74-2.14-8.06-3.36-12.66-3.36-6.09,0-11.69,2.14-16.09,5.71-.86.69-1.67,1.44-2.43,2.24-1.26,3.47-2.19,7.09-2.75,10.83-.01.01-.01.02-.01.03-.62,2.87-.94,5.84-.94,8.89s.32,6.02.94,8.89c0,0,0,.02.01.03.37,1.78.86,3.51,1.46,5.19,4.69,5.74,11.83,9.41,19.81,9.41,3.78,0,7.38-.82,10.61-2.31Z"/>
    <path class="cls-1" d="M36.53,32.8c.69.41,1.36.86,2.01,1.35,4.79-3.45,10.67-5.48,17-5.48,12.88,0,23.84,8.38,27.71,19.98l.68-.22c-.92-3.79-2.35-7.38-4.21-10.7-7.29-13.01-21.21-21.82-37.16-21.82-13.49,0-25.53,6.31-33.33,16.13,3.87-2.08,8.3-3.26,12.99-3.26,5.24,0,10.14,1.47,14.31,4.02Z"/>
  </g>
</svg>