<svg width="503" height="117" viewBox="0 0 503 117" fill="none" xmlns="http://www.w3.org/2000/svg">
<path d="M109.41 87.6396C99.3002 105.16 80.3701 116.96 58.7402 116.96C35.7904 116.96 15.9001 103.68 6.33008 84.4004C14.43 95.6801 27.6499 103.05 42.5596 103.05C61.6094 103.05 77.8996 91.0402 84.2598 74.1904L109.41 87.6396ZM156.83 9.44043C186.53 9.44047 189.78 31 189.78 59.75C189.78 88.5 186.53 110.06 156.83 110.06C127.13 110.06 123.88 88.23 123.88 59.75C123.88 31.27 127 9.44043 156.83 9.44043ZM469.66 9.44043C488.78 9.44048 499.63 18.25 499.63 35.8799V38.1904H480.92C480.92 28.4204 477.8 23.8096 470.34 23.8096C462.88 23.8096 459.22 28.0204 459.22 35.0703C459.22 42.12 461.94 45.0998 469.26 48.2197L484.18 54.7305H484.17C497.05 60.2905 502.75 66.8004 502.75 80.3604C502.75 100.16 491.09 110.06 469.12 110.06C448.92 110.06 438.34 102.05 438.34 80.9004V77.9199H457.87V80.5C457.87 92.57 462.61 95.6904 470.75 95.6904C477.66 95.6904 482.41 91.2198 482.41 83.7598C482.41 77.7899 481.06 73.7197 474.14 71.0098L462.34 66.2598C449.05 60.9698 439.69 55.0098 439.69 37.9199C439.69 19.61 450.54 9.44043 469.66 9.44043ZM247.41 77.6504H247.69V11.3398H265.59V108.16H243.35L219.48 40.3496H219.21V108.16H201.31V11.3398H223.82L247.41 77.6504ZM333.25 27.3398H298.67V50.1201H331.22V66.1201H298.67V108.16H279.14V11.3398H333.25V27.3398ZM362.41 108.16H342.88V11.3398H362.41V108.16ZM431.02 27.3398H396.44V50.1201H428.99V66.1201H396.44V92.1602H432.38V108.16H376.92V11.3398H431.02V27.3398ZM82.4902 73.2402C82.1802 74.0902 81.8397 74.93 81.4697 75.75C74.8297 90.6399 59.8895 101.05 42.5596 101.05C25.9498 101.05 11.5295 91.4802 4.51953 77.5703C9.31947 81.5803 15.4898 83.9999 22.2197 84C26.5697 84 30.6904 82.9897 34.3604 81.1797C35.0902 80.8297 35.8004 80.4395 36.4902 80.0195C41.6102 84.4395 48.27 87.1104 55.54 87.1104C66.38 87.1103 75.8597 81.1796 80.8896 72.3896L82.4902 73.2402ZM156.83 23.7998C144.77 23.7998 143.41 35.3302 143.41 59.7402C143.41 84.1501 144.76 95.6797 156.83 95.6797C169.03 95.6796 170.25 83.88 170.25 59.7402C170.25 35.6003 168.89 23.7999 156.83 23.7998ZM22.2197 30.7803C26.8196 30.7803 31.1399 31.9997 34.8799 34.1396C35.5698 34.5296 36.2397 34.96 36.8896 35.4199C30.4398 40.7799 26.3204 48.8599 26.3203 57.8896C26.3203 65.9696 29.6203 73.2996 34.9502 78.5996C34.2602 78.9996 33.5601 79.3604 32.8301 79.6904C29.6001 81.1804 25.9997 82 22.2197 82C14.2398 81.9999 7.1001 78.3298 2.41016 72.5898C1.81022 70.91 1.32018 69.1802 0.950195 67.4004C0.940643 67.3908 0.940449 67.3718 0.94043 67.3701C0.320461 64.5003 3.28172e-05 61.5303 0 58.4805C0 55.4305 0.32043 52.4598 0.94043 49.5898C0.94043 49.5799 0.940247 49.5695 0.950195 49.5596C1.51018 45.8199 2.44031 42.2002 3.7002 38.7305C4.46014 37.9305 5.26995 37.1802 6.12988 36.4902C10.5298 32.9203 16.1298 30.7803 22.2197 30.7803ZM42.5596 15.9102C58.5096 15.9102 72.4297 24.7205 79.7197 37.7305C81.5796 41.0503 83.0097 44.6399 83.9297 48.4297L83.25 48.6504C79.38 37.0504 68.42 28.6699 55.54 28.6699C49.21 28.6699 43.33 30.7004 38.54 34.1504C37.8901 33.6604 37.2202 33.2098 36.5303 32.7998C32.3603 30.2498 27.4597 28.7803 22.2197 28.7803C17.53 28.7803 13.1003 29.9602 9.23047 32.04C17.0304 22.2203 29.0698 15.9103 42.5596 15.9102ZM58.7402 0C84.1701 9.87512e-05 105.86 16.3201 113.89 39.04L85.8398 47.8301C81.0598 28.3801 63.4696 13.9102 42.5596 13.9102C27.6499 13.9103 14.43 21.2799 6.33008 32.5596C15.9002 13.2798 35.7904 0 58.7402 0Z" fill="white"/>
</svg>
